<?xml version="1.0" standalone="no"?><!DOCTYPE svg PUBLIC "-//W3C//DTD SVG 1.1//EN" "http://www.w3.org/Graphics/SVG/1.1/DTD/svg11.dtd"><svg t="1600219701968" class="icon" viewBox="0 0 1506 1024" version="1.1" xmlns="http://www.w3.org/2000/svg" p-id="6138" xmlns:xlink="http://www.w3.org/1999/xlink" width="294.140625" height="200"><defs><style type="text/css"></style></defs><path d="M9.640229 1024H1497.088C1290.152229 867.883886 1032.572343 775.314286 753.371429 775.314286 474.170514 775.314286 216.590629 867.883886 9.640229 1024z" fill="#cdcdcd" p-id="6139"></path><path d="M757.028571 384.453486H650.971429v26.5216h106.057142V384.438857zM757.028571 437.482057H650.971429v26.5216h106.057142v-26.5216zM650.971429 543.5392a13.253486 13.253486 0 1 0 0-26.506971 13.253486 13.253486 0 0 0 0 26.506971zM704 543.5392a13.253486 13.253486 0 1 0 0-26.506971 13.253486 13.253486 0 0 0 0 26.506971zM757.028571 543.5392a13.253486 13.253486 0 1 0 0-26.506971 13.253486 13.253486 0 0 0 0 26.506971zM1234.285714 119.310629h-106.057143V145.846857h106.057143V119.310629zM1234.285714 172.3392h-106.057143v26.5216h106.057143V172.324571zM1234.285714 225.367771H995.649829v26.5216h238.635885v-26.5216zM1101.7216 119.310629h-106.057143v79.550171h106.057143V119.310629zM1075.2 172.3392h-53.028571V145.846857H1075.2v26.506972z" fill="#cdcdcd" p-id="6140"></path><path d="M1287.314286 304.917943V66.267429H942.621257v275.207314a106.539886 106.539886 0 0 0-53.013943-32.826514v-3.744915c0-23.610514-15.579429-43.285943-36.907885-50.102857 6.582857-17.408 10.386286-36.220343 10.386285-55.954286 0-87.8592-71.226514-159.085714-159.085714-159.085714S544.914286 111.0016 544.914286 198.8608c0 19.748571 3.803429 38.531657 10.386285 55.954286-21.328457 6.816914-36.907886 26.477714-36.907885 50.102857v3.744914c-45.641143 11.819886-79.535543 52.955429-79.535543 102.312229v145.8176a66.282057 66.282057 0 0 0 66.282057 66.296685h39.775086v57.899886c-30.8224 10.9568-53.028571 40.082286-53.028572 74.664229v53.028571h185.607315V623.089371h53.013942V808.667429h185.607315v-53.028572c0-34.581943-22.206171-63.707429-53.028572-74.664228v-131.701029c7.68 6.875429 16.574171 12.463543 26.5216 15.959771v4.8128c0 14.628571 11.863771 26.506971 26.506972 26.506972h26.5216v212.114286h26.506971v-212.114286h26.5216a26.506971 26.506971 0 0 0 26.506972-26.506972V490.496a26.506971 26.506971 0 0 0-26.5216-26.506971H969.142857V304.917943H1287.314286z m-318.171429-212.114286h291.664457V278.381714H969.142857V92.803657z m-143.798857 53.028572a131.540114 131.540114 0 0 1 11.220114 53.028571c0 18.870857-4.096 36.7616-11.234743 53.028571h-142.1312l106.042515-106.057142h36.088685z m-15.959771 132.564114a134.187886 134.187886 0 0 1-27.062858 26.5216H625.678629a134.187886 134.187886 0 0 1-27.062858-26.5216h210.768458z m-105.384229-212.114286c43.139657 0 81.159314 21.021257 105.384229 53.028572H598.615771c24.224914-32.007314 62.244571-53.028571 105.384229-53.028572zM582.670629 145.846857h169.077028l-106.057143 106.057143h-63.019885a131.540114 131.540114 0 0 1-11.249372-53.028571c0-18.870857 4.096-36.7616 11.249372-53.028572z m-15.754972 133.485714c5.412571 9.172114 11.761371 17.7152 18.8416 25.6H544.914286c0-13.019429 9.610971-23.376457 22.001371-25.6z m-101.536914 131.657143a79.637943 79.637943 0 0 1 79.535543-79.550171v159.085714h-79.550172v-79.535543zM509.366857 596.553143a44.061257 44.061257 0 0 1-44.002743-44.017372v-35.518171h79.535543v26.506971h-26.5216v26.5216h26.5216v26.506972h-35.5328zM650.971429 782.189714h-26.5216v-26.5216h-26.506972v26.5216h-26.5216v-26.5216H544.914286v26.5216h-26.5216v-26.5216a53.101714 53.101714 0 0 1 53.0432-53.028571H650.971429v79.550171z m0-185.607314v79.550171h-79.550172V331.424914h265.157486V676.132571H757.028571V596.553143H650.971429z m238.635885 159.085714v26.5216H863.085714v-26.5216h-26.5216v26.5216h-26.506971v-26.5216h-26.5216v26.5216H757.028571V702.610286h79.550172a53.101714 53.101714 0 0 1 53.013943 53.028571z m-67.364571-450.735543c7.080229-7.8848 13.429029-16.427886 18.8416-25.6 12.3904 2.223543 22.001371 12.580571 22.001371 25.6h-40.842971z m67.364571 185.592686v45.524114C873.808457 526.877257 863.085714 510.039771 863.085714 490.510629V331.424914a79.637943 79.637943 0 0 1 79.550172 79.550172v53.028571h-26.5216a26.506971 26.506971 0 0 0-26.5216 26.506972z m106.057143 0v79.550172h-79.550171V490.496h79.550171z" fill="#cdcdcd" p-id="6141"></path></svg>