<?xml version="1.0" standalone="no"?><!DOCTYPE svg PUBLIC "-//W3C//DTD SVG 1.1//EN" "http://www.w3.org/Graphics/SVG/1.1/DTD/svg11.dtd"><svg t="1600150799693" class="icon" viewBox="0 0 1525 1024" version="1.1" xmlns="http://www.w3.org/2000/svg" p-id="5979" xmlns:xlink="http://www.w3.org/1999/xlink" width="297.8515625" height="200"><defs><style type="text/css"></style></defs><path d="M761.206755 30.733078C340.316163 30.733078 0 380.56705 0 812.355896h1522.340854c0-431.788846-340.316163-781.622818-761.134099-781.622818z" fill="#F5F5F5" p-id="5980"></path><path d="M760.843479 197.984958c-333.849865 0-603.835959 279.867178-603.835958 624.833263h1208.325812c-0.653895-345.61998-270.712644-624.833262-604.489854-624.833263z" fill="#E6E6E6" p-id="5981"></path><path d="M761.497375 358.407266c-243.321697 0-440.65276 202.05364-440.65276 450.461189h880.651625c0.653895-248.480204-196.168582-450.461189-439.998865-450.461189z" fill="#DADADA" p-id="5982"></path><path d="M46.063289 819.185469H14.531006a11.26153 11.26153 0 1 0 0 22.523059h30.515113a11.55215 11.55215 0 0 0 11.26153-11.261529 10.462324 10.462324 0 0 0-10.24436-11.26153z m552.977438 0H88.711792a11.26153 11.26153 0 0 0 0 22.523059h509.675039a11.624805 11.624805 0 0 0 11.26153-11.261529 10.97091 10.97091 0 0 0-10.607634-11.26153z m66.188732 0h-20.488718a11.26153 11.26153 0 0 0 0 22.523059h20.488718a11.26153 11.26153 0 1 0 0-22.523059z m748.346815 0H704.753796a11.26153 11.26153 0 0 0 0 22.523059h708.967788a11.26153 11.26153 0 0 0 0-22.523059z m100.699872 0h-38.943096a11.26153 11.26153 0 0 0 0 22.523059h38.943096a11.55215 11.55215 0 0 0 11.479495-11.261529 11.84277 11.84277 0 0 0-11.26153-11.26153zM716.087981 955.704271h-31.023698a11.26153 11.26153 0 1 0 0 22.52306h30.369802a11.55215 11.55215 0 0 0 11.26153-11.26153 10.8256 10.8256 0 0 0-10.607634-11.26153z m689.205619-3.705406h-196.604512a58.124024 58.124024 0 0 0-55.653754-43.593019 57.179509 57.179509 0 0 0-56.307648 46.426565H757.791968a11.624805 11.624805 0 0 0-11.334185 11.26153 11.915425 11.915425 0 0 0 11.334185 11.261529H1097.090961a57.470129 57.470129 0 0 0 56.307648 46.426565 56.598269 56.598269 0 0 0 56.961544-50.204626h194.279552a11.624805 11.624805 0 0 0 11.26153-11.26153 10.099049 10.099049 0 0 0-10.24436-10.534979z m-251.967646 50.131971a35.52831 35.52831 0 1 1 35.891585-35.455655 35.746275 35.746275 0 0 1-35.891585 35.455655z" fill="#989898" p-id="5983"></path><path d="M344.74812 430.045126a307.185469 307.185469 0 1 0 307.185469-307.185469 306.822194 306.822194 0 0 0-307.185469 307.185469z" fill="#FBFBFB" p-id="5984"></path><path d="M650.262523 744.132822a317.502483 317.502483 0 1 1 319.100894-317.502483 318.810274 318.810274 0 0 1-319.100894 317.502483z m0-612.409252a295.633319 295.633319 0 1 0 296.94111 295.633319A296.723145 296.723145 0 0 0 650.262523 131.72357z" fill="#989898" p-id="5985"></path><path d="M672.422307 609.285086c0 64.880942 108.982546 117.773804 243.684973 117.773804s243.757627-52.892862 244.411522-117.773804-108.982546-117.773804-243.684972-117.773805-244.411523 52.238967-244.411523 117.773805z" fill="#FFFFFF" p-id="5986"></path><path d="M913.055768 737.30325c-142.69448 0-254.292607-57.034199-254.292606-129.761885s111.598127-129.689229 254.292606-129.689229 254.292607 57.034199 254.292607 129.689229-111.598127 129.761884-254.292607 129.761885z m0-237.58195c-125.911168 0-232.496098 49.114801-232.496097 107.820065s106.149 107.89272 232.496097 107.89272 232.496098-49.187456 232.496098-107.89272-106.58493-107.820065-232.496098-107.820065z" fill="#989898" p-id="5987"></path><path d="M916.470555 389.140343c-83.989215 0-151.921669 58.124024-151.921669 130.779055a118.71832 118.71832 0 0 0 20.488719 65.898113 1085.466156 1085.466156 0 0 0 131.43295 8.137363 1077.110827 1077.110827 0 0 0 131.43295-8.137363 113.269193 113.269193 0 0 0 20.488719-65.898113c0-71.78317-67.932454-130.779055-151.921669-130.779055z" fill="#FFFFFF" p-id="5988"></path><path d="M916.470555 607.541365A1112.203207 1112.203207 0 0 1 784.67433 599.404002a10.389669 10.389669 0 0 1-7.265504-5.521783 126.783028 126.783028 0 0 1-22.813679-72.65503c0-78.830708 72.655031-142.331205 162.093373-142.331205s162.166028 63.500497 162.166028 142.331205a128.018164 128.018164 0 0 1-22.886335 72.65503 11.26153 11.26153 0 0 1-7.265503 5.521783 1113.438343 1113.438343 0 0 1-132.232155 8.137363z m-123.513552-30.369803a1038.167731 1038.167731 0 0 0 248.552859 0 106.58493 106.58493 0 0 0 15.984107-55.944373c0-66.552008-62.773946-119.808145-140.296864-119.808145s-140.224209 53.910033-140.224209 119.808145a97.285086 97.285086 0 0 0 15.984107 55.944373z" fill="#989898" p-id="5989"></path><path d="M767.963672 641.689229A23.903505 23.903505 0 1 0 791.939833 617.567759a23.758195 23.758195 0 0 0-23.976161 24.12147z" fill="#DADADA" p-id="5990"></path><path d="M793.610898 679.25188a35.891585 35.891585 0 1 1 35.81893-35.81893 35.81893 35.81893 0 0 1-35.81893 35.81893z m0-49.478076a13.659146 13.659146 0 1 0 13.659146 13.659146 14.095076 14.095076 0 0 0-13.659146-13.659146z" fill="#989898" p-id="5991"></path><path d="M1010.340854 641.689229a23.903505 23.903505 0 1 0 23.903505-24.12147 24.194125 24.194125 0 0 0-23.903505 24.12147z" fill="#DADADA" p-id="5992"></path><path d="M1039.330211 679.25188a35.891585 35.891585 0 1 1 35.964241-35.81893 36.327515 36.327515 0 0 1-35.964241 35.81893z m0-49.478076a13.659146 13.659146 0 1 0 13.659146 13.659146 14.095076 14.095076 0 0 0-13.659146-13.659146z" fill="#989898" p-id="5993"></path><path d="M894.310771 658.763162a23.903505 23.903505 0 1 0 23.903505-23.903505 23.758195 23.758195 0 0 0-23.903505 23.903505z" fill="#DADADA" p-id="5994"></path><path d="M916.470555 696.325812a35.891585 35.891585 0 1 1 35.81893-35.81893 36.327515 36.327515 0 0 1-35.81893 35.81893z m0-49.478075a13.659146 13.659146 0 0 0-13.659146 13.659145 14.531006 14.531006 0 0 0 13.659146 13.659146 13.731801 13.731801 0 0 0 13.513836-13.659146 13.077905 13.077905 0 0 0-13.513836-13.87711z" fill="#989898" p-id="5995"></path><path d="M672.422307 296.94111a68.295729 68.295729 0 1 0 68.295729-68.223074 68.513694 68.513694 0 0 0-68.295729 68.223074z" fill="#FFFFFF" p-id="5996"></path><path d="M738.974315 368.651625a78.612743 78.612743 0 0 1-79.920533-76.796367 80.283809 80.283809 0 0 1 160.422307 0 79.411948 79.411948 0 0 1-80.501774 76.796367z m0-132.086846a56.089684 56.089684 0 0 0-56.961544 54.563928 57.034199 57.034199 0 0 0 113.995743 0 56.162339 56.162339 0 0 0-57.034199-54.563928z" fill="#989898" p-id="5997"></path><path d="M471.022563 399.602668a20.488719 20.488719 0 1 0 20.488718-20.488719A20.343409 20.343409 0 0 0 471.022563 399.602668z" fill="#FFFFFF" p-id="5998"></path><path d="M491.511281 423.288208A30.733078 30.733078 0 1 1 522.244359 392.337165a30.587768 30.587768 0 0 1-30.733078 30.951043z m0-39.596992A8.863914 8.863914 0 1 0 500.375195 392.337165a8.573294 8.573294 0 0 0-8.863914-8.645949z" fill="#989898" p-id="5999"></path><path d="M518.829573 551.596992a44.392224 44.392224 0 1 0 88.711792 0v-0.653896a44.537534 44.537534 0 0 0-44.319568-45.772669 46.063289 46.063289 0 0 0-44.392224 46.426565z" fill="#FFFFFF" p-id="6000"></path><path d="M569.034199 606.233575a55.653753 55.653753 0 1 1 56.307649-55.653754 55.799063 55.799063 0 0 1-56.307649 55.653754z m0-88.784448a33.784589 33.784589 0 1 0 34.438484 33.784589 34.002554 34.002554 0 0 0-34.438484-33.784589z m632.098765 223.268909H268.823613a11.26153 11.26153 0 1 1 0-22.523059h931.292181a11.624805 11.624805 0 0 1 11.624805 11.261529 11.11622 11.11622 0 0 1-10.898255 11.624805z m85.660281 0h-31.459628a11.26153 11.26153 0 1 1 0-22.523059h30.442458a11.624805 11.624805 0 0 1 11.55215 11.261529 10.8256 10.8256 0 0 1-10.8256 11.624805zM226.974315 741.081311h-30.369802a11.26153 11.26153 0 1 1 0-22.523059h30.369802a11.26153 11.26153 0 1 1 0 22.523059zM126.274443 346.782461a43.593018 43.593018 0 1 1 44.392224-43.593019 43.593018 43.593018 0 0 1-44.392224 43.593019z m0-66.188733a21.796509 21.796509 0 1 0 22.232439 21.796509 21.796509 21.796509 0 0 0-22.232439-21.796509z" fill="#989898" p-id="6001"></path><path d="M479.886477 54.636583H414.133674a11.98808 11.98808 0 0 1 0-23.903505h65.389527a11.98808 11.98808 0 0 1 0 23.903505z" fill="#C5C5C5" p-id="6002"></path><path d="M443.195686 87.186037a11.55215 11.55215 0 0 1-11.26153-11.26153v-64.662977a11.26153 11.26153 0 1 1 22.52306 0v64.517667A11.624805 11.624805 0 0 1 443.195686 87.186037z m448.136228 24.920675A47.153115 47.153115 0 1 1 938.630339 65.389527a47.153115 47.153115 0 0 1-47.08046 46.571875z m0-70.983965a25.356606 25.356606 0 0 0-25.28395 24.920676 25.283951 25.283951 0 0 0 50.858521 0 25.356606 25.356606 0 0 0-25.356606-25.065986zM128.018164 645.104016h-65.389528a11.26153 11.26153 0 0 1 0-22.52306h65.389528a11.624805 11.624805 0 0 1 11.261529 11.26153 11.915425 11.915425 0 0 1-11.261529 11.26153z" fill="#C5C5C5" p-id="6003"></path><path d="M96.631191 679.25188a11.69746 11.69746 0 0 1-11.334185-11.624805v-65.389527a11.915425 11.915425 0 0 1 11.334185-11.55215 11.69746 11.69746 0 0 1 11.261529 11.55215v65.389527a11.915425 11.915425 0 0 1-11.261529 11.624805zM1293.259543 567.944373a38.216546 38.216546 0 1 1 38.216546-38.216546 37.853271 37.853271 0 0 1-38.216546 38.216546z m0-54.927203a16.056762 16.056762 0 1 0 16.056762 16.056762 15.620832 15.620832 0 0 0-16.056762-16.056762z" fill="#C5C5C5" p-id="6004"></path></svg>